# Blender v3.2.1 OBJ File: ''
# www.blender.org
o Z_Cylinder
v 0.000000 0.100000 0.000000 0.000000 0.000000 1.000000
v 0.000000 0.100000 2.000000 0.000000 0.000000 1.000000
v 0.019509 0.098079 0.000000 0.000000 0.000000 1.000000
v 0.019509 0.098079 2.000000 0.000000 0.000000 1.000000
v 0.038268 0.092388 0.000000 0.000000 0.000000 1.000000
v 0.038268 0.092388 2.000000 0.000000 0.000000 1.000000
v 0.055557 0.083147 0.000000 0.000000 0.000000 1.000000
v 0.055557 0.083147 2.000000 0.000000 0.000000 1.000000
v 0.070711 0.070711 0.000000 0.000000 0.000000 1.000000
v 0.070711 0.070711 2.000000 0.000000 0.000000 1.000000
v 0.083147 0.055557 0.000000 0.000000 0.000000 1.000000
v 0.083147 0.055557 2.000000 0.000000 0.000000 1.000000
v 0.092388 0.038268 0.000000 0.000000 0.000000 1.000000
v 0.092388 0.038268 2.000000 0.000000 0.000000 1.000000
v 0.098079 0.019509 0.000000 0.000000 0.000000 1.000000
v 0.098079 0.019509 2.000000 0.000000 0.000000 1.000000
v 0.100000 -0.000000 0.000000 0.000000 0.000000 1.000000
v 0.100000 -0.000000 2.000000 0.000000 0.000000 1.000000
v 0.098079 -0.019509 0.000000 0.000000 0.000000 1.000000
v 0.098079 -0.019509 2.000000 0.000000 0.000000 1.000000
v 0.092388 -0.038268 0.000000 0.000000 0.000000 1.000000
v 0.092388 -0.038268 2.000000 0.000000 0.000000 1.000000
v 0.083147 -0.055557 0.000000 0.000000 0.000000 1.000000
v 0.083147 -0.055557 2.000000 0.000000 0.000000 1.000000
v 0.070711 -0.070711 0.000000 0.000000 0.000000 1.000000
v 0.070711 -0.070711 2.000000 0.000000 0.000000 1.000000
v 0.055557 -0.083147 0.000000 0.000000 0.000000 1.000000
v 0.055557 -0.083147 2.000000 0.000000 0.000000 1.000000
v 0.038268 -0.092388 0.000000 0.000000 0.000000 1.000000
v 0.038268 -0.092388 2.000000 0.000000 0.000000 1.000000
v 0.019509 -0.098079 0.000000 0.000000 0.000000 1.000000
v 0.019509 -0.098079 2.000000 0.000000 0.000000 1.000000
v -0.000000 -0.100000 0.000000 0.000000 0.000000 1.000000
v -0.000000 -0.100000 2.000000 0.000000 0.000000 1.000000
v -0.019509 -0.098079 0.000000 0.000000 0.000000 1.000000
v -0.019509 -0.098079 2.000000 0.000000 0.000000 1.000000
v -0.038268 -0.092388 0.000000 0.000000 0.000000 1.000000
v -0.038268 -0.092388 2.000000 0.000000 0.000000 1.000000
v -0.055557 -0.083147 0.000000 0.000000 0.000000 1.000000
v -0.055557 -0.083147 2.000000 0.000000 0.000000 1.000000
v -0.070711 -0.070711 0.000000 0.000000 0.000000 1.000000
v -0.070711 -0.070711 2.000000 0.000000 0.000000 1.000000
v -0.083147 -0.055557 0.000000 0.000000 0.000000 1.000000
v -0.083147 -0.055557 2.000000 0.000000 0.000000 1.000000
v -0.092388 -0.038268 0.000000 0.000000 0.000000 1.000000
v -0.092388 -0.038268 2.000000 0.000000 0.000000 1.000000
v -0.098079 -0.019509 0.000000 0.000000 0.000000 1.000000
v -0.098079 -0.019509 2.000000 0.000000 0.000000 1.000000
v -0.100000 0.000000 0.000000 0.000000 0.000000 1.000000
v -0.100000 0.000000 2.000000 0.000000 0.000000 1.000000
v -0.098079 0.019509 0.000000 0.000000 0.000000 1.000000
v -0.098079 0.019509 2.000000 0.000000 0.000000 1.000000
v -0.092388 0.038268 0.000000 0.000000 0.000000 1.000000
v -0.092388 0.038268 2.000000 0.000000 0.000000 1.000000
v -0.083147 0.055557 0.000000 0.000000 0.000000 1.000000
v -0.083147 0.055557 2.000000 0.000000 0.000000 1.000000
v -0.070711 0.070711 0.000000 0.000000 0.000000 1.000000
v -0.070711 0.070711 2.000000 0.000000 0.000000 1.000000
v -0.055557 0.083147 0.000000 0.000000 0.000000 1.000000
v -0.055557 0.083147 2.000000 0.000000 0.000000 1.000000
v -0.038268 0.092388 0.000000 0.000000 0.000000 1.000000
v -0.038268 0.092388 2.000000 0.000000 0.000000 1.000000
v -0.019509 0.098079 0.000000 0.000000 0.000000 1.000000
v -0.019509 0.098079 2.000000 0.000000 0.000000 1.000000
vn 0.0980 0.9952 0.0000
vn 0.2903 0.9569 0.0000
vn 0.4714 0.8819 0.0000
vn 0.6344 0.7730 0.0000
vn 0.7730 0.6344 0.0000
vn 0.8819 0.4714 0.0000
vn 0.9569 0.2903 0.0000
vn 0.9952 0.0980 0.0000
vn 0.9952 -0.0980 0.0000
vn 0.9569 -0.2903 0.0000
vn 0.8819 -0.4714 0.0000
vn 0.7730 -0.6344 0.0000
vn 0.6344 -0.7730 0.0000
vn 0.4714 -0.8819 0.0000
vn 0.2903 -0.9569 0.0000
vn 0.0980 -0.9952 0.0000
vn -0.0980 -0.9952 0.0000
vn -0.2903 -0.9569 0.0000
vn -0.4714 -0.8819 0.0000
vn -0.6344 -0.7730 0.0000
vn -0.7730 -0.6344 0.0000
vn -0.8819 -0.4714 0.0000
vn -0.9569 -0.2903 0.0000
vn -0.9952 -0.0980 0.0000
vn -0.9952 0.0980 0.0000
vn -0.9569 0.2903 0.0000
vn -0.8819 0.4714 0.0000
vn -0.7730 0.6344 0.0000
vn -0.6344 0.7730 0.0000
vn -0.4714 0.8819 0.0000
vn 0.0000 0.0000 1.0000
vn -0.2903 0.9569 0.0000
vn -0.0980 0.9952 0.0000
vn 0.0000 0.0000 -1.0000
vn -0.0001 0.0000 1.0000
vn 0.0001 0.0000 1.0000
s off
f 2//1 3//1 1//1
f 4//2 5//2 3//2
f 6//3 7//3 5//3
f 8//4 9//4 7//4
f 10//5 11//5 9//5
f 12//6 13//6 11//6
f 14//7 15//7 13//7
f 16//8 17//8 15//8
f 18//9 19//9 17//9
f 20//10 21//10 19//10
f 22//11 23//11 21//11
f 24//12 25//12 23//12
f 26//13 27//13 25//13
f 28//14 29//14 27//14
f 30//15 31//15 29//15
f 32//16 33//16 31//16
f 34//17 35//17 33//17
f 36//18 37//18 35//18
f 38//19 39//19 37//19
f 40//20 41//20 39//20
f 42//21 43//21 41//21
f 44//22 45//22 43//22
f 46//23 47//23 45//23
f 48//24 49//24 47//24
f 50//25 51//25 49//25
f 52//26 53//26 51//26
f 54//27 55//27 53//27
f 56//28 57//28 55//28
f 58//29 59//29 57//29
f 60//30 61//30 59//30
f 6//31 54//31 38//31
f 62//32 63//32 61//32
f 64//33 1//33 63//33
f 47//34 55//34 63//34
f 2//1 4//1 3//1
f 4//2 6//2 5//2
f 6//3 8//3 7//3
f 8//4 10//4 9//4
f 10//5 12//5 11//5
f 12//6 14//6 13//6
f 14//7 16//7 15//7
f 16//8 18//8 17//8
f 18//9 20//9 19//9
f 20//10 22//10 21//10
f 22//11 24//11 23//11
f 24//12 26//12 25//12
f 26//13 28//13 27//13
f 28//14 30//14 29//14
f 30//15 32//15 31//15
f 32//16 34//16 33//16
f 34//17 36//17 35//17
f 36//18 38//18 37//18
f 38//19 40//19 39//19
f 40//20 42//20 41//20
f 42//21 44//21 43//21
f 44//22 46//22 45//22
f 46//23 48//23 47//23
f 48//24 50//24 49//24
f 50//25 52//25 51//25
f 52//26 54//26 53//26
f 54//27 56//27 55//27
f 56//28 58//28 57//28
f 58//29 60//29 59//29
f 60//30 62//30 61//30
f 6//31 4//31 2//31
f 2//31 64//31 62//31
f 62//31 60//31 58//31
f 58//31 56//31 54//31
f 54//35 52//35 50//35
f 50//36 48//36 54//36
f 48//31 46//31 54//31
f 46//31 44//31 42//31
f 42//31 40//31 46//31
f 40//31 38//31 46//31
f 38//31 36//31 34//31
f 34//31 32//31 30//31
f 30//31 28//31 26//31
f 26//31 24//31 22//31
f 22//31 20//31 14//31
f 20//31 18//31 14//31
f 18//31 16//31 14//31
f 14//31 12//31 10//31
f 10//31 8//31 14//31
f 8//31 6//31 14//31
f 6//31 2//31 62//31
f 62//31 58//31 6//31
f 58//31 54//31 6//31
f 38//31 34//31 30//31
f 30//31 26//31 22//31
f 54//31 46//31 38//31
f 38//31 30//31 6//31
f 30//31 22//31 6//31
f 22//31 14//31 6//31
f 62//32 64//32 63//32
f 64//33 2//33 1//33
f 63//34 1//34 3//34
f 3//34 5//34 7//34
f 7//34 9//34 11//34
f 11//34 13//34 7//34
f 13//34 15//34 7//34
f 15//34 17//34 19//34
f 19//34 21//34 23//34
f 23//34 25//34 27//34
f 27//34 29//34 23//34
f 29//34 31//34 23//34
f 31//34 33//34 39//34
f 33//34 35//34 39//34
f 35//34 37//34 39//34
f 39//34 41//34 47//34
f 41//34 43//34 47//34
f 43//34 45//34 47//34
f 47//34 49//34 51//34
f 51//34 53//34 47//34
f 53//34 55//34 47//34
f 55//34 57//34 63//34
f 57//34 59//34 63//34
f 59//34 61//34 63//34
f 63//34 3//34 15//34
f 3//34 7//34 15//34
f 15//34 19//34 23//34
f 15//34 23//34 63//34
f 23//34 31//34 63//34
f 31//34 39//34 63//34
f 39//34 47//34 63//34
o Y_Cylinder.001
v 0.000000 0.000000 -0.100000 0.000000 1.000000 0.000000
v 0.000000 2.000000 -0.100000 0.000000 1.000000 0.000000
v 0.019509 0.000000 -0.098078 0.000000 1.000000 0.000000
v 0.019509 2.000000 -0.098079 0.000000 1.000000 0.000000
v 0.038268 0.000000 -0.092388 0.000000 1.000000 0.000000
v 0.038268 2.000000 -0.092388 0.000000 1.000000 0.000000
v 0.055557 0.000000 -0.083147 0.000000 1.000000 0.000000
v 0.055557 2.000000 -0.083147 0.000000 1.000000 0.000000
v 0.070711 0.000000 -0.070711 0.000000 1.000000 0.000000
v 0.070711 2.000000 -0.070711 0.000000 1.000000 0.000000
v 0.083147 0.000000 -0.055557 0.000000 1.000000 0.000000
v 0.083147 2.000000 -0.055557 0.000000 1.000000 0.000000
v 0.092388 0.000000 -0.038268 0.000000 1.000000 0.000000
v 0.092388 2.000000 -0.038268 0.000000 1.000000 0.000000
v 0.098079 0.000000 -0.019509 0.000000 1.000000 0.000000
v 0.098079 2.000000 -0.019509 0.000000 1.000000 0.000000
v 0.100000 0.000000 0.000000 0.000000 1.000000 0.000000
v 0.100000 2.000000 -0.000000 0.000000 1.000000 0.000000
v 0.098079 0.000000 0.019509 0.000000 1.000000 0.000000
v 0.098079 2.000000 0.019509 0.000000 1.000000 0.000000
v 0.092388 0.000000 0.038268 0.000000 1.000000 0.000000
v 0.092388 2.000000 0.038268 0.000000 1.000000 0.000000
v 0.083147 0.000000 0.055557 0.000000 1.000000 0.000000
v 0.083147 2.000000 0.055557 0.000000 1.000000 0.000000
v 0.070711 0.000000 0.070711 0.000000 1.000000 0.000000
v 0.070711 2.000000 0.070711 0.000000 1.000000 0.000000
v 0.055557 0.000000 0.083147 0.000000 1.000000 0.000000
v 0.055557 2.000000 0.083147 0.000000 1.000000 0.000000
v 0.038268 0.000000 0.092388 0.000000 1.000000 0.000000
v 0.038268 2.000000 0.092388 0.000000 1.000000 0.000000
v 0.019509 0.000000 0.098079 0.000000 1.000000 0.000000
v 0.019509 2.000000 0.098078 0.000000 1.000000 0.000000
v -0.000000 0.000000 0.100000 0.000000 1.000000 0.000000
v -0.000000 2.000000 0.100000 0.000000 1.000000 0.000000
v -0.019509 0.000000 0.098079 0.000000 1.000000 0.000000
v -0.019509 2.000000 0.098078 0.000000 1.000000 0.000000
v -0.038268 0.000000 0.092388 0.000000 1.000000 0.000000
v -0.038268 2.000000 0.092388 0.000000 1.000000 0.000000
v -0.055557 0.000000 0.083147 0.000000 1.000000 0.000000
v -0.055557 2.000000 0.083147 0.000000 1.000000 0.000000
v -0.070711 0.000000 0.070711 0.000000 1.000000 0.000000
v -0.070711 2.000000 0.070711 0.000000 1.000000 0.000000
v -0.083147 0.000000 0.055557 0.000000 1.000000 0.000000
v -0.083147 2.000000 0.055557 0.000000 1.000000 0.000000
v -0.092388 0.000000 0.038268 0.000000 1.000000 0.000000
v -0.092388 2.000000 0.038268 0.000000 1.000000 0.000000
v -0.098079 0.000000 0.019509 0.000000 1.000000 0.000000
v -0.098079 2.000000 0.019509 0.000000 1.000000 0.000000
v -0.100000 0.000000 0.000000 0.000000 1.000000 0.000000
v -0.100000 2.000000 -0.000000 0.000000 1.000000 0.000000
v -0.098079 0.000000 -0.019509 0.000000 1.000000 0.000000
v -0.098079 2.000000 -0.019509 0.000000 1.000000 0.000000
v -0.092388 0.000000 -0.038268 0.000000 1.000000 0.000000
v -0.092388 2.000000 -0.038268 0.000000 1.000000 0.000000
v -0.083147 0.000000 -0.055557 0.000000 1.000000 0.000000
v -0.083147 2.000000 -0.055557 0.000000 1.000000 0.000000
v -0.070711 0.000000 -0.070711 0.000000 1.000000 0.000000
v -0.070711 2.000000 -0.070711 0.000000 1.000000 0.000000
v -0.055557 0.000000 -0.083147 0.000000 1.000000 0.000000
v -0.055557 2.000000 -0.083147 0.000000 1.000000 0.000000
v -0.038268 0.000000 -0.092388 0.000000 1.000000 0.000000
v -0.038268 2.000000 -0.092388 0.000000 1.000000 0.000000
v -0.019509 0.000000 -0.098078 0.000000 1.000000 0.000000
v -0.019509 2.000000 -0.098079 0.000000 1.000000 0.000000
vn 0.0980 -0.0000 -0.9952
vn 0.2903 -0.0000 -0.9569
vn 0.4714 -0.0000 -0.8819
vn 0.6344 -0.0000 -0.7730
vn 0.7730 -0.0000 -0.6344
vn 0.8819 -0.0000 -0.4714
vn 0.9569 -0.0000 -0.2903
vn 0.9952 -0.0000 -0.0980
vn 0.9952 0.0000 0.0980
vn 0.9569 0.0000 0.2903
vn 0.8819 0.0000 0.4714
vn 0.7730 0.0000 0.6344
vn 0.6344 0.0000 0.7730
vn 0.4714 0.0000 0.8819
vn 0.2903 0.0000 0.9569
vn 0.0980 0.0000 0.9952
vn -0.0980 0.0000 0.9952
vn -0.2903 0.0000 0.9569
vn -0.4714 0.0000 0.8819
vn -0.6344 0.0000 0.7730
vn -0.7730 0.0000 0.6344
vn -0.8819 0.0000 0.4714
vn -0.9569 0.0000 0.2903
vn -0.9952 0.0000 0.0980
vn -0.9952 0.0000 -0.0980
vn -0.9569 -0.0000 -0.2903
vn -0.8819 -0.0000 -0.4714
vn -0.7730 -0.0000 -0.6344
vn -0.6344 -0.0000 -0.7730
vn -0.4714 -0.0000 -0.8819
vn 0.0000 1.0000 0.0000
vn -0.2903 -0.0000 -0.9569
vn -0.0980 -0.0000 -0.9952
vn 0.0000 -1.0000 0.0000
vn 0.0000 1.0000 0.0001
vn 0.0000 1.0000 -0.0001
s off
f 66//37 67//37 65//37
f 68//38 69//38 67//38
f 70//39 71//39 69//39
f 72//40 73//40 71//40
f 74//41 75//41 73//41
f 76//42 77//42 75//42
f 78//43 79//43 77//43
f 80//44 81//44 79//44
f 82//45 83//45 81//45
f 84//46 85//46 83//46
f 86//47 87//47 85//47
f 88//48 89//48 87//48
f 90//49 91//49 89//49
f 92//50 93//50 91//50
f 94//51 95//51 93//51
f 96//52 97//52 95//52
f 98//53 99//53 97//53
f 100//54 101//54 99//54
f 102//55 103//55 101//55
f 104//56 105//56 103//56
f 106//57 107//57 105//57
f 108//58 109//58 107//58
f 110//59 111//59 109//59
f 112//60 113//60 111//60
f 114//61 115//61 113//61
f 116//62 117//62 115//62
f 118//63 119//63 117//63
f 120//64 121//64 119//64
f 122//65 123//65 121//65
f 124//66 125//66 123//66
f 70//67 118//67 102//67
f 126//68 127//68 125//68
f 128//69 65//69 127//69
f 111//70 119//70 127//70
f 66//37 68//37 67//37
f 68//38 70//38 69//38
f 70//39 72//39 71//39
f 72//40 74//40 73//40
f 74//41 76//41 75//41
f 76//42 78//42 77//42
f 78//43 80//43 79//43
f 80//44 82//44 81//44
f 82//45 84//45 83//45
f 84//46 86//46 85//46
f 86//47 88//47 87//47
f 88//48 90//48 89//48
f 90//49 92//49 91//49
f 92//50 94//50 93//50
f 94//51 96//51 95//51
f 96//52 98//52 97//52
f 98//53 100//53 99//53
f 100//54 102//54 101//54
f 102//55 104//55 103//55
f 104//56 106//56 105//56
f 106//57 108//57 107//57
f 108//58 110//58 109//58
f 110//59 112//59 111//59
f 112//60 114//60 113//60
f 114//61 116//61 115//61
f 116//62 118//62 117//62
f 118//63 120//63 119//63
f 120//64 122//64 121//64
f 122//65 124//65 123//65
f 124//66 126//66 125//66
f 70//67 68//67 66//67
f 66//67 128//67 126//67
f 126//67 124//67 122//67
f 122//67 120//67 118//67
f 118//67 116//67 114//67
f 114//67 112//67 118//67
f 112//67 110//67 118//67
f 110//67 108//67 106//67
f 106//67 104//67 110//67
f 104//67 102//67 110//67
f 102//71 100//71 98//71
f 98//72 96//72 94//72
f 94//67 92//67 90//67
f 90//67 88//67 86//67
f 86//67 84//67 78//67
f 84//67 82//67 78//67
f 82//67 80//67 78//67
f 78//67 76//67 74//67
f 74//67 72//67 78//67
f 72//67 70//67 78//67
f 70//67 66//67 126//67
f 126//67 122//67 70//67
f 122//67 118//67 70//67
f 102//67 98//67 94//67
f 94//67 90//67 86//67
f 118//67 110//67 102//67
f 102//67 94//67 70//67
f 94//67 86//67 70//67
f 86//67 78//67 70//67
f 126//68 128//68 127//68
f 128//69 66//69 65//69
f 127//70 65//70 67//70
f 67//70 69//70 71//70
f 71//70 73//70 75//70
f 75//70 77//70 71//70
f 77//70 79//70 71//70
f 79//70 81//70 83//70
f 83//70 85//70 87//70
f 87//70 89//70 91//70
f 91//70 93//70 87//70
f 93//70 95//70 87//70
f 95//70 97//70 103//70
f 97//70 99//70 103//70
f 99//70 101//70 103//70
f 103//70 105//70 111//70
f 105//70 107//70 111//70
f 107//70 109//70 111//70
f 111//70 113//70 115//70
f 115//70 117//70 111//70
f 117//70 119//70 111//70
f 119//70 121//70 127//70
f 121//70 123//70 127//70
f 123//70 125//70 127//70
f 127//70 67//70 79//70
f 67//70 71//70 79//70
f 79//70 83//70 87//70
f 79//70 87//70 127//70
f 87//70 95//70 127//70
f 95//70 103//70 127//70
f 103//70 111//70 127//70
o X_Cylinder.002
v 0.000000 0.000000 -0.100000 1.000000 0.000000 0.000000
v 2.000000 -0.000000 -0.100000 1.000000 0.000000 0.000000
v 0.000000 -0.019509 -0.098078 1.000000 0.000000 0.000000
v 2.000000 -0.019509 -0.098079 1.000000 0.000000 0.000000
v 0.000000 -0.038268 -0.092388 1.000000 0.000000 0.000000
v 2.000000 -0.038268 -0.092388 1.000000 0.000000 0.000000
v 0.000000 -0.055557 -0.083147 1.000000 0.000000 0.000000
v 2.000000 -0.055557 -0.083147 1.000000 0.000000 0.000000
v 0.000000 -0.070711 -0.070711 1.000000 0.000000 0.000000
v 2.000000 -0.070711 -0.070711 1.000000 0.000000 0.000000
v 0.000000 -0.083147 -0.055557 1.000000 0.000000 0.000000
v 2.000000 -0.083147 -0.055557 1.000000 0.000000 0.000000
v 0.000000 -0.092388 -0.038268 1.000000 0.000000 0.000000
v 2.000000 -0.092388 -0.038268 1.000000 0.000000 0.000000
v 0.000000 -0.098078 -0.019509 1.000000 0.000000 0.000000
v 2.000000 -0.098079 -0.019509 1.000000 0.000000 0.000000
v 0.000000 -0.100000 0.000000 1.000000 0.000000 0.000000
v 2.000000 -0.100000 -0.000000 1.000000 0.000000 0.000000
v 0.000000 -0.098078 0.019509 1.000000 0.000000 0.000000
v 2.000000 -0.098079 0.019509 1.000000 0.000000 0.000000
v 0.000000 -0.092388 0.038268 1.000000 0.000000 0.000000
v 2.000000 -0.092388 0.038268 1.000000 0.000000 0.000000
v 0.000000 -0.083147 0.055557 1.000000 0.000000 0.000000
v 2.000000 -0.083147 0.055557 1.000000 0.000000 0.000000
v 0.000000 -0.070711 0.070711 1.000000 0.000000 0.000000
v 2.000000 -0.070711 0.070711 1.000000 0.000000 0.000000
v 0.000000 -0.055557 0.083147 1.000000 0.000000 0.000000
v 2.000000 -0.055557 0.083147 1.000000 0.000000 0.000000
v 0.000000 -0.038268 0.092388 1.000000 0.000000 0.000000
v 2.000000 -0.038268 0.092388 1.000000 0.000000 0.000000
v 0.000000 -0.019509 0.098079 1.000000 0.000000 0.000000
v 2.000000 -0.019509 0.098078 1.000000 0.000000 0.000000
v 0.000000 0.000000 0.100000 1.000000 0.000000 0.000000
v 2.000000 -0.000000 0.100000 1.000000 0.000000 0.000000
v 0.000000 0.019509 0.098079 1.000000 0.000000 0.000000
v 2.000000 0.019509 0.098078 1.000000 0.000000 0.000000
v 0.000000 0.038268 0.092388 1.000000 0.000000 0.000000
v 2.000000 0.038268 0.092388 1.000000 0.000000 0.000000
v 0.000000 0.055557 0.083147 1.000000 0.000000 0.000000
v 2.000000 0.055557 0.083147 1.000000 0.000000 0.000000
v 0.000000 0.070711 0.070711 1.000000 0.000000 0.000000
v 2.000000 0.070711 0.070711 1.000000 0.000000 0.000000
v 0.000000 0.083147 0.055557 1.000000 0.000000 0.000000
v 2.000000 0.083147 0.055557 1.000000 0.000000 0.000000
v 0.000000 0.092388 0.038268 1.000000 0.000000 0.000000
v 2.000000 0.092388 0.038268 1.000000 0.000000 0.000000
v 0.000000 0.098079 0.019509 1.000000 0.000000 0.000000
v 2.000000 0.098078 0.019509 1.000000 0.000000 0.000000
v 0.000000 0.100000 0.000000 1.000000 0.000000 0.000000
v 2.000000 0.100000 -0.000000 1.000000 0.000000 0.000000
v 0.000000 0.098079 -0.019509 1.000000 0.000000 0.000000
v 2.000000 0.098078 -0.019509 1.000000 0.000000 0.000000
v 0.000000 0.092388 -0.038268 1.000000 0.000000 0.000000
v 2.000000 0.092388 -0.038268 1.000000 0.000000 0.000000
v 0.000000 0.083147 -0.055557 1.000000 0.000000 0.000000
v 2.000000 0.083147 -0.055557 1.000000 0.000000 0.000000
v 0.000000 0.070711 -0.070711 1.000000 0.000000 0.000000
v 2.000000 0.070711 -0.070711 1.000000 0.000000 0.000000
v 0.000000 0.055557 -0.083147 1.000000 0.000000 0.000000
v 2.000000 0.055557 -0.083147 1.000000 0.000000 0.000000
v 0.000000 0.038268 -0.092388 1.000000 0.000000 0.000000
v 2.000000 0.038268 -0.092388 1.000000 0.000000 0.000000
v 0.000000 0.019509 -0.098078 1.000000 0.000000 0.000000
v 2.000000 0.019509 -0.098079 1.000000 0.000000 0.000000
vn -0.0000 -0.0980 -0.9952
vn -0.0000 -0.2903 -0.9569
vn -0.0000 -0.4714 -0.8819
vn -0.0000 -0.6344 -0.7730
vn -0.0000 -0.7730 -0.6344
vn -0.0000 -0.8819 -0.4714
vn -0.0000 -0.9569 -0.2903
vn -0.0000 -0.9952 -0.0980
vn -0.0000 -0.9952 0.0980
vn -0.0000 -0.9569 0.2903
vn -0.0000 -0.8819 0.4714
vn -0.0000 -0.7730 0.6344
vn 0.0000 -0.6344 0.7730
vn 0.0000 -0.4714 0.8819
vn 0.0000 -0.2903 0.9569
vn 0.0000 -0.0980 0.9952
vn 0.0000 0.0980 0.9952
vn 0.0000 0.2903 0.9569
vn 0.0000 0.4714 0.8819
vn 0.0000 0.6344 0.7730
vn 0.0000 0.7730 0.6344
vn 0.0000 0.8819 0.4714
vn 0.0000 0.9569 0.2903
vn 0.0000 0.9952 0.0980
vn 0.0000 0.9952 -0.0980
vn 0.0000 0.9569 -0.2903
vn 0.0000 0.8819 -0.4714
vn 0.0000 0.7730 -0.6344
vn -0.0000 0.6344 -0.7730
vn -0.0000 0.4714 -0.8819
vn 1.0000 0.0000 0.0000
vn -0.0000 0.2903 -0.9569
vn -0.0000 0.0980 -0.9952
vn -1.0000 0.0000 0.0000
vn 1.0000 -0.0001 0.0000
vn 1.0000 0.0001 0.0000
s off
f 130//73 131//73 129//73
f 132//74 133//74 131//74
f 134//75 135//75 133//75
f 136//76 137//76 135//76
f 138//77 139//77 137//77
f 140//78 141//78 139//78
f 142//79 143//79 141//79
f 144//80 145//80 143//80
f 146//81 147//81 145//81
f 148//82 149//82 147//82
f 150//83 151//83 149//83
f 152//84 153//84 151//84
f 154//85 155//85 153//85
f 156//86 157//86 155//86
f 158//87 159//87 157//87
f 160//88 161//88 159//88
f 162//89 163//89 161//89
f 164//90 165//90 163//90
f 166//91 167//91 165//91
f 168//92 169//92 167//92
f 170//93 171//93 169//93
f 172//94 173//94 171//94
f 174//95 175//95 173//95
f 176//96 177//96 175//96
f 178//97 179//97 177//97
f 180//98 181//98 179//98
f 182//99 183//99 181//99
f 184//100 185//100 183//100
f 186//101 187//101 185//101
f 188//102 189//102 187//102
f 134//103 182//103 166//103
f 190//104 191//104 189//104
f 192//105 129//105 191//105
f 175//106 183//106 191//106
f 130//73 132//73 131//73
f 132//74 134//74 133//74
f 134//75 136//75 135//75
f 136//76 138//76 137//76
f 138//77 140//77 139//77
f 140//78 142//78 141//78
f 142//79 144//79 143//79
f 144//80 146//80 145//80
f 146//81 148//81 147//81
f 148//82 150//82 149//82
f 150//83 152//83 151//83
f 152//84 154//84 153//84
f 154//85 156//85 155//85
f 156//86 158//86 157//86
f 158//87 160//87 159//87
f 160//88 162//88 161//88
f 162//89 164//89 163//89
f 164//90 166//90 165//90
f 166//91 168//91 167//91
f 168//92 170//92 169//92
f 170//93 172//93 171//93
f 172//94 174//94 173//94
f 174//95 176//95 175//95
f 176//96 178//96 177//96
f 178//97 180//97 179//97
f 180//98 182//98 181//98
f 182//99 184//99 183//99
f 184//100 186//100 185//100
f 186//101 188//101 187//101
f 188//102 190//102 189//102
f 134//103 132//103 130//103
f 130//103 192//103 190//103
f 190//103 188//103 186//103
f 186//103 184//103 182//103
f 182//103 180//103 178//103
f 178//103 176//103 182//103
f 176//103 174//103 182//103
f 174//103 172//103 170//103
f 170//103 168//103 174//103
f 168//103 166//103 174//103
f 166//103 164//103 162//103
f 162//103 160//103 158//103
f 158//103 156//103 154//103
f 154//103 152//103 150//103
f 150//107 148//107 142//107
f 148//103 146//103 142//103
f 146//108 144//108 142//108
f 142//103 140//103 138//103
f 138//103 136//103 142//103
f 136//103 134//103 142//103
f 134//103 130//103 190//103
f 190//103 186//103 134//103
f 186//103 182//103 134//103
f 166//103 162//103 158//103
f 158//103 154//103 150//103
f 182//103 174//103 166//103
f 166//103 158//103 134//103
f 158//103 150//103 134//103
f 150//103 142//103 134//103
f 190//104 192//104 191//104
f 192//105 130//105 129//105
f 191//106 129//106 131//106
f 131//106 133//106 135//106
f 135//106 137//106 139//106
f 139//106 141//106 135//106
f 141//106 143//106 135//106
f 143//106 145//106 147//106
f 147//106 149//106 151//106
f 151//106 153//106 155//106
f 155//106 157//106 151//106
f 157//106 159//106 151//106
f 159//106 161//106 167//106
f 161//106 163//106 167//106
f 163//106 165//106 167//106
f 167//106 169//106 175//106
f 169//106 171//106 175//106
f 171//106 173//106 175//106
f 175//106 177//106 179//106
f 179//106 181//106 175//106
f 181//106 183//106 175//106
f 183//106 185//106 191//106
f 185//106 187//106 191//106
f 187//106 189//106 191//106
f 191//106 131//106 143//106
f 131//106 135//106 143//106
f 143//106 147//106 151//106
f 143//106 151//106 191//106
f 151//106 159//106 191//106
f 159//106 167//106 191//106
f 167//106 175//106 191//106
